<svg width="10" height="18" viewBox="0 0 10 18" fill="none" xmlns="http://www.w3.org/2000/svg">
<path d="M9.70711 1.70711C10.0976 1.31658 10.0976 0.683417 9.70711 0.292893C9.31658 -0.0976311 8.68342 -0.0976311 8.29289 0.292893L9.70711 1.70711ZM1.70711 8.29289L0.999999 7.58579H0.999999L1.70711 8.29289ZM1.70711 9.70711L2.41421 9L2.41421 9L1.70711 9.70711ZM8.29289 17.7071C8.68342 18.0976 9.31658 18.0976 9.70711 17.7071C10.0976 17.3166 10.0976 16.6834 9.70711 16.2929L8.29289 17.7071ZM8.29289 0.292893L0.999999 7.58579L2.41421 9L9.70711 1.70711L8.29289 0.292893ZM1 10.4142L8.29289 17.7071L9.70711 16.2929L2.41421 9L1 10.4142ZM0.999999 7.58579C0.21895 8.36684 0.218952 9.63317 1 10.4142L2.41421 9L2.41421 9L0.999999 7.58579Z" fill="#5F5F5F"/>
</svg>
