<svg width="10" height="18" viewBox="0 0 10 18" fill="none" xmlns="http://www.w3.org/2000/svg">
<path d="M0.292893 1.70711C-0.0976315 1.31658 -0.0976315 0.683417 0.292893 0.292893C0.683417 -0.0976311 1.31658 -0.0976311 1.70711 0.292893L0.292893 1.70711ZM8.29289 8.29289L9 7.58579H9L8.29289 8.29289ZM8.29289 9.70711L7.58579 9L7.58579 9L8.29289 9.70711ZM1.70711 17.7071C1.31658 18.0976 0.683417 18.0976 0.292893 17.7071C-0.0976315 17.3166 -0.0976315 16.6834 0.292893 16.2929L1.70711 17.7071ZM1.70711 0.292893L9 7.58579L7.58579 9L0.292893 1.70711L1.70711 0.292893ZM9 10.4142L1.70711 17.7071L0.292893 16.2929L7.58579 9L9 10.4142ZM9 7.58579C9.78105 8.36684 9.78105 9.63317 9 10.4142L7.58579 9L7.58579 9L9 7.58579Z" fill="#5F5F5F"/>
</svg>
